<?xml version="1.0" standalone="no"?>
<!DOCTYPE svg PUBLIC "-//W3C//DTD SVG 20010904//EN"
 "http://www.w3.org/TR/2001/REC-SVG-20010904/DTD/svg10.dtd">
<svg version="1.0" xmlns="http://www.w3.org/2000/svg"
 width="638.000000pt" height="361.000000pt" viewBox="0 0 638.000000 361.000000"
 preserveAspectRatio="xMidYMid meet">

<g transform="translate(0.000000,361.000000) scale(0.100000,-0.100000)"
fill="#000000" stroke="none">
<path d="M2921 3562 c-16 -16 -35 -52 -44 -82 -27 -94 -103 -475 -161 -805
-14 -77 -39 -212 -56 -300 -17 -88 -37 -194 -45 -235 -8 -41 -28 -147 -45
-235 -17 -88 -37 -194 -45 -235 -15 -81 -23 -110 -34 -110 -3 0 -94 90 -201
199 -205 211 -221 222 -288 205 -41 -10 -80 -64 -238 -326 l-95 -158 -787 0
-787 0 -47 -46 c-41 -39 -48 -51 -48 -84 0 -30 7 -48 29 -72 l29 -33 789 -3
c433 -2 826 -1 871 3 l84 7 78 121 c43 67 100 155 125 195 26 39 51 72 55 72
5 0 100 -95 212 -210 112 -116 219 -222 239 -235 52 -37 99 -34 136 9 40 44
60 133 174 736 104 555 128 665 142 643 10 -16 45 -269 97 -693 28 -230 61
-494 70 -555 6 -38 24 -182 40 -320 16 -137 34 -284 40 -325 5 -41 15 -113 21
-160 23 -188 61 -433 69 -456 18 -47 114 -69 159 -38 37 27 39 31 320 901
l101 312 185 3 184 3 31 30 c18 17 86 97 153 178 76 93 126 147 136 145 9 -2
64 -64 123 -137 59 -74 128 -156 155 -183 l48 -49 706 3 c668 3 708 4 727 21
11 10 27 32 35 49 20 41 9 70 -46 126 l-41 42 -647 0 -647 0 -42 58 c-24 31
-102 130 -173 219 -141 176 -161 191 -231 172 -37 -10 -72 -49 -269 -291
l-117 -145 -193 -7 c-105 -4 -202 -10 -215 -13 -35 -8 -64 -77 -163 -382 -50
-152 -97 -291 -105 -310 -28 -64 -26 -75 -99 519 -25 201 -47 379 -50 395 -3
17 -12 86 -20 155 -8 69 -20 159 -25 200 -6 41 -17 129 -25 195 -8 66 -23 192
-34 280 -11 88 -39 304 -61 480 -72 575 -65 546 -127 572 -50 20 -81 16 -112
-15z"/>
</g>
</svg>
